<?xml version="1.0" encoding="utf-8"?>
<!-- Generator: Adobe Illustrator 19.1.0, SVG Export Plug-In . SVG Version: 6.00 Build 0)  -->
<svg version="1.1" id="Layer_1" xmlns="http://www.w3.org/2000/svg" xmlns:xlink="http://www.w3.org/1999/xlink" x="0px" y="0px"
	 viewBox="-15 49 20 20" style="enable-background:new -15 49 20 20;" xml:space="preserve">
<style type="text/css">
	.close {fill:#fff;}
	/* svg:hover .close {fill:#000;} */
</style>
<path class="close" d="M-10.6,65.2c0.2,0.1,0.3,0.2,0.5,0.2s0.4-0.1,0.5-0.2l4.7-4.7l4.7,4.7c0.2,0.1,0.3,0.2,0.5,0.2
	c0.2,0,0.4-0.1,0.5-0.2c0.3-0.3,0.3-0.8,0-1.1l-4.7-4.7l4.7-4.7c0.3-0.3,0.3-0.8,0-1.1c-0.3-0.3-0.8-0.3-1.1,0l-4.7,4.7l-4.7-4.7
	c-0.3-0.3-0.8-0.3-1.1,0c-0.3,0.3-0.3,0.8,0,1.1l4.7,4.7l-4.7,4.7C-10.9,64.4-10.9,64.9-10.6,65.2z"/>
</svg>
