<?xml version="1.0" encoding="utf-8"?>
<!-- Generator: Adobe Illustrator 19.1.0, SVG Export Plug-In . SVG Version: 6.00 Build 0)  -->
<svg version="1.1" id="Group" xmlns="http://www.w3.org/2000/svg" xmlns:xlink="http://www.w3.org/1999/xlink" x="0px" y="0px"
	 viewBox="-20 22 20 20" style="enable-background:new -20 22 20 20;" xml:space="preserve">
<style type="text/css">
	.st0{fill:#FFFFFF;}
</style>
<path class="st0" d="M-15,25h10v8h1v-8c0-0.6-0.4-1-1-1h-10c-0.6,0-1,0.4-1,1v8h1V25z"/>
<path class="st0" d="M-2,32h-2v1h-12v-1h-2c-0.6,0-1,0.4-1,1v5h3v1c0,0.6,0.4,1,1,1h10c0.6,0,1-0.4,1-1v-1h3v-5C-1,32.4-1.4,32-2,32
	z M-5,39h-10v-2h10V39z M-3,35c-0.6,0-1-0.4-1-1s0.4-1,1-1s1,0.4,1,1S-2.4,35-3,35z"/>
</svg>
